# xmcd CD database file
#
# Track frame offsets:
#	200
#	20270
#	41790
#	77710
#	92140
#	104955
#	129010
#	160992
#	187732
#	209640
#	236185
#	253580
#	264112
#	264337
#	264562
#	264787
#	264872
#
# Disc length: 3629 seconds
#
# Revision: 0
# Processed by: cddbd v1.5.1PL0 Copyright (c) Steve Scherf et al.
# Submitted via: CDex 1.60beta1
#
DISCID=e20e2b11
DTITLE=Din.Ger - Dinger
DYEAR=0
DGENRE=New Age
TTITLE0=Love (I)
TTITLE1=Everytime
TTITLE2=Crazy For Your Love
TTITLE3=Another Day In N.Y.C.
TTITLE4=Better
TTITLE5=Grind
TTITLE6=Tyranny Of The Circle
TTITLE7=Maybe
TTITLE8=Suicide Me
TTITLE9=Love (Ii)
TTITLE10=Love (Iii)
TTITLE11=Everytime (El Vino De La Mix)
TTITLE12=Silence
TTITLE13=Silence
TTITLE14=Silence
TTITLE15=Silence
TTITLE16=Another Day In N.Y.C (Remix)
EXTD=YEAR: 0
EXTT0=
EXTT1=
EXTT2=
EXTT3=
EXTT4=
EXTT5=
EXTT6=
EXTT7=
EXTT8=
EXTT9=
EXTT10=
EXTT11=
EXTT12=
EXTT13=
EXTT14=
EXTT15=
EXTT16=
PLAYORDER=
